<svg width="63" height="16" viewBox="0 0 63 16" fill="none" xmlns="http://www.w3.org/2000/svg">
<g clip-path="url(#clip0_4_85)">
<path d="M23.8972 6.87015H21.0466V12.2397H19.3397V6.87015H18.3379V5.47373H19.3397V4.65156C19.3397 2.81438 20.3285 2.0473 21.7385 2.0473C22.007 2.0473 22.33 2.06002 22.6269 2.11511V3.5412H22.0201C21.243 3.5412 21.0466 3.97983 21.0466 4.65156V5.47373H25.6193V12.2418H23.8972V6.87015ZM23.7269 3.08985C23.7269 2.54103 24.1787 2.10452 24.7571 2.10452C25.3356 2.10452 25.7743 2.54315 25.7743 3.08985C25.7743 3.63655 25.3225 4.09002 24.7571 4.09002C24.1918 4.09002 23.7269 3.65139 23.7269 3.08985Z" fill="white"/>
<path d="M29.4567 10.623H33.774V12.2398H27.6494V5.4614H29.4567V10.623Z" fill="white"/>
<path d="M34.4375 8.85567C34.4375 6.73243 35.8628 5.26608 37.908 5.26608C39.9531 5.26608 41.3238 6.62224 41.3238 8.73277V9.23921L36.0745 9.25193C36.2011 10.4428 36.8515 11.0467 37.9931 11.0467C38.9382 11.0467 39.5602 10.6907 39.7567 10.0466H41.3522C41.0554 11.5256 39.7851 12.4156 37.9647 12.4156C35.8912 12.4156 34.4375 10.9492 34.4375 8.85355V8.85567ZM36.116 8.18395H39.6148C39.6148 7.25159 38.9513 6.63496 37.9211 6.63496C36.8908 6.63496 36.284 7.16895 36.1138 8.18395H36.116Z" fill="white"/>
<path d="M42.3125 9.49989C42.3125 7.1711 43.8797 5.4314 45.9401 5.4314C47.1122 5.4314 48.0006 6.00777 48.2974 6.96556L49.0592 2.2529H49.9759L48.352 12.2398H47.5204L47.647 10.9239C47.0271 11.9113 46.1518 12.4029 45.0212 12.4029C43.4257 12.4029 42.3125 11.212 42.3125 9.49777V9.49989ZM48.0137 8.30901C48.0137 7.00794 47.2934 6.24086 46.01 6.24086C44.4428 6.24086 43.2445 7.63729 43.2445 9.47446C43.2445 10.7628 44.0063 11.5977 45.2067 11.5977C46.787 11.5977 48.0158 10.1737 48.0158 8.30901H48.0137Z" fill="white"/>
<path d="M54.066 5.43135C55.1944 5.43135 56.0566 5.99288 56.3381 6.92525L56.6634 5.60934H57.495L56.4516 12.049C56.098 14.1595 54.8998 15.2826 52.9528 15.2826C51.1892 15.2826 50.004 14.2697 49.9473 12.7334H50.8793C50.936 13.7887 51.7392 14.4604 52.9681 14.4604C54.365 14.4604 55.2686 13.6382 55.5087 12.1316L55.7772 10.5826C55.1835 11.5002 54.2384 12.0342 53.1383 12.0342C51.5297 12.0342 50.4144 10.9111 50.4144 9.27946C50.4144 7.12867 52.023 5.42923 54.0682 5.42923L54.066 5.43135ZM53.2628 11.2268C54.8299 11.2268 56.0282 9.92575 56.0282 8.18605C56.0282 6.98034 55.2948 6.24081 54.0944 6.24081C52.5556 6.24081 51.3573 7.56942 51.3573 9.24132C51.3573 10.447 52.1059 11.2268 53.2628 11.2268Z" fill="white"/>
<path d="M62.8713 6.33621H62.3343C61.1339 6.33621 60.1888 7.15838 59.9923 8.41919L59.3572 12.2419H58.4404L59.5121 5.61151H60.3437L60.2455 6.72187C60.6275 5.9675 61.4176 5.46106 62.3343 5.46106C62.5591 5.46106 62.7861 5.48861 62.9979 5.52887L62.8713 6.33621Z" fill="white"/>
</g>
<path fill-rule="evenodd" clip-rule="evenodd" d="M13.3238 5.73355L13.4304 6.26259C13.6034 7.12073 13.6174 8.41948 12.9619 9.39149C12.6232 9.8938 12.1155 10.2915 11.4068 10.4828C10.7092 10.6711 9.84655 10.6519 8.79392 10.3848L8.1709 10.2267L8.48151 9.66399C9.8 7.27532 11.8714 6.15544 12.8056 5.88409L13.3238 5.73355ZM9.70739 9.55959C10.3168 9.65103 10.7876 9.62191 11.1482 9.52458C11.6201 9.3972 11.9301 9.14642 12.1391 8.8366C12.4684 8.34821 12.5673 7.67602 12.5332 7.05609C11.7646 7.42704 10.6141 8.21432 9.70739 9.55959Z" fill="white"/>
<path fill-rule="evenodd" clip-rule="evenodd" d="M2.01017 5.73355L1.90354 6.26259C1.73059 7.12073 1.7166 8.41948 2.37204 9.39149C2.71076 9.8938 3.21849 10.2915 3.92714 10.4828C4.62474 10.6711 5.48743 10.6519 6.54006 10.3848L7.16309 10.2267L6.85247 9.66399C5.53399 7.27532 3.46259 6.15544 2.52843 5.88409L2.01017 5.73355ZM5.6266 9.55959C5.01723 9.65103 4.54638 9.62191 4.18577 9.52458C3.71383 9.3972 3.40384 9.14642 3.19492 8.8366C2.86559 8.34821 2.76665 7.67602 2.80081 7.05609C3.56935 7.42704 4.71985 8.21432 5.6266 9.55959Z" fill="white"/>
<mask id="path-9-inside-1_4_85" fill="white">
<path fill-rule="evenodd" clip-rule="evenodd" d="M7.61051 13.6377C11.1778 13.6377 14.0696 10.7459 14.0696 7.17859C14.0696 6.43604 13.9443 5.72275 13.7137 5.05871C13.2663 5.51571 12.6675 5.91775 11.7721 6.38056C10.4445 7.08439 8.93594 8.89348 8.4082 10.0136C8.20067 10.4773 7.61368 12.0154 7.61368 12.0154C7.61368 12.0154 7.01127 10.4778 6.78713 10.0296C6.22738 8.81344 4.78288 7.06898 3.31115 6.30052C2.6368 5.95887 2.00148 5.50896 1.51113 5.04768C1.27806 5.71484 1.15137 6.43192 1.15137 7.17859C1.15137 10.7459 4.04322 13.6377 7.61051 13.6377ZM2.04232 3.90307C3.16553 1.9978 5.23873 0.719452 7.61051 0.719452C9.98134 0.719452 12.0538 1.99679 13.1774 3.90081C12.6501 4.05257 12.022 4.20195 11.1649 4.37995C10.1415 4.60409 8.9093 4.92428 8.46161 5.1164L7.61368 5.4526L6.78175 5.1164C6.31806 4.92428 4.94239 4.57207 3.74283 4.31651C3.13597 4.18662 2.5291 4.03639 2.04232 3.90307ZM12.9435 6.36065C13.2667 7.96439 12.9136 10.9183 8.91547 9.90381C10.1635 7.64279 12.1208 6.59961 12.9435 6.36065ZM2.38932 6.36065C2.06609 7.96439 2.41916 10.9183 6.41734 9.90381C5.16931 7.64279 3.21198 6.59961 2.38932 6.36065Z"/>
</mask>
<path fill-rule="evenodd" clip-rule="evenodd" d="M7.61051 13.6377C11.1778 13.6377 14.0696 10.7459 14.0696 7.17859C14.0696 6.43604 13.9443 5.72275 13.7137 5.05871C13.2663 5.51571 12.6675 5.91775 11.7721 6.38056C10.4445 7.08439 8.93594 8.89348 8.4082 10.0136C8.20067 10.4773 7.61368 12.0154 7.61368 12.0154C7.61368 12.0154 7.01127 10.4778 6.78713 10.0296C6.22738 8.81344 4.78288 7.06898 3.31115 6.30052C2.6368 5.95887 2.00148 5.50896 1.51113 5.04768C1.27806 5.71484 1.15137 6.43192 1.15137 7.17859C1.15137 10.7459 4.04322 13.6377 7.61051 13.6377ZM2.04232 3.90307C3.16553 1.9978 5.23873 0.719452 7.61051 0.719452C9.98134 0.719452 12.0538 1.99679 13.1774 3.90081C12.6501 4.05257 12.022 4.20195 11.1649 4.37995C10.1415 4.60409 8.9093 4.92428 8.46161 5.1164L7.61368 5.4526L6.78175 5.1164C6.31806 4.92428 4.94239 4.57207 3.74283 4.31651C3.13597 4.18662 2.5291 4.03639 2.04232 3.90307ZM12.9435 6.36065C13.2667 7.96439 12.9136 10.9183 8.91547 9.90381C10.1635 7.64279 12.1208 6.59961 12.9435 6.36065ZM2.38932 6.36065C2.06609 7.96439 2.41916 10.9183 6.41734 9.90381C5.16931 7.64279 3.21198 6.59961 2.38932 6.36065Z" fill="white"/>
<path d="M13.7137 5.05871L15.1556 4.55796L14.3471 2.22991L12.623 3.99092L13.7137 5.05871ZM11.7721 6.38056L11.0712 5.02463L11.0642 5.02827L11.0572 5.03199L11.7721 6.38056ZM8.4082 10.0136L7.02743 9.363L7.02109 9.37644L7.01502 9.39001L8.4082 10.0136ZM7.61368 12.0154L6.1925 12.5722L7.63241 16.2475L9.03973 12.5596L7.61368 12.0154ZM6.78713 10.0296L5.40059 10.6678L5.4109 10.6902L5.42192 10.7122L6.78713 10.0296ZM3.31115 6.30052L4.01763 4.94749L4.00933 4.94316L4.00097 4.93892L3.31115 6.30052ZM1.51113 5.04768L2.55697 3.93592L0.845213 2.32565L0.0701584 4.54429L1.51113 5.04768ZM2.04232 3.90307L0.727439 3.12791L-0.28649 4.84781L1.63912 5.37521L2.04232 3.90307ZM13.1774 3.90081L13.5995 5.36764L15.4935 4.82254L14.4919 3.12512L13.1774 3.90081ZM11.1649 4.37995L10.8545 2.88548L10.8465 2.88716L10.8384 2.88893L11.1649 4.37995ZM8.46161 5.1164L9.0242 6.5353L9.04398 6.52745L9.06354 6.51906L8.46161 5.1164ZM7.61368 5.4526L7.04177 6.86777L7.60827 7.09671L8.17627 6.8715L7.61368 5.4526ZM6.78175 5.1164L6.1975 6.52658L6.20985 6.53157L6.78175 5.1164ZM3.74283 4.31651L3.42337 5.80907L3.42478 5.80937L3.74283 4.31651ZM12.9435 6.36065L14.4398 6.05907L14.1118 4.43183L12.5177 4.89487L12.9435 6.36065ZM8.91547 9.90381L7.57916 9.1662L6.62376 10.8971L8.54008 11.3833L8.91547 9.90381ZM2.38932 6.36065L2.81509 4.89487L1.22102 4.43183L0.893049 6.05907L2.38932 6.36065ZM6.41734 9.90381L6.79273 11.3833L8.70904 10.8971L7.75364 9.1662L6.41734 9.90381ZM12.5433 7.17859C12.5433 9.90289 10.3348 12.1114 7.61051 12.1114V15.1641C12.0208 15.1641 15.596 11.5889 15.596 7.17859H12.5433ZM12.2718 5.55947C12.4473 6.06465 12.5433 6.60879 12.5433 7.17859H15.596C15.596 6.26328 15.4414 5.38084 15.1556 4.55796L12.2718 5.55947ZM12.473 7.7365C13.4297 7.24196 14.1924 6.75165 14.8044 6.12651L12.623 3.99092C12.3402 4.27978 11.9053 4.59353 11.0712 5.02463L12.473 7.7365ZM9.78898 10.6641C9.96993 10.2801 10.3799 9.67064 10.9274 9.05911C11.4789 8.44312 12.0483 7.96174 12.487 7.72914L11.0572 5.03199C10.1683 5.50322 9.31961 6.2783 8.65302 7.02283C7.98242 7.77182 7.37422 8.62696 7.02743 9.363L9.78898 10.6641ZM7.61368 12.0154C9.03973 12.5596 9.03973 12.5596 9.03973 12.5596C9.03973 12.5596 9.03974 12.5596 9.03974 12.5596C9.03975 12.5596 9.03977 12.5595 9.0398 12.5594C9.03986 12.5593 9.03996 12.559 9.04009 12.5587C9.04034 12.558 9.04074 12.557 9.04127 12.5556C9.04234 12.5528 9.04394 12.5486 9.04606 12.5431C9.05031 12.532 9.0566 12.5155 9.0647 12.4944C9.08091 12.452 9.10437 12.3909 9.13319 12.316C9.19088 12.166 9.26983 11.9616 9.35504 11.7433C9.53215 11.2894 9.71609 10.8277 9.80139 10.6371L7.01502 9.39001C6.89278 9.66312 6.67946 10.2023 6.51119 10.6335C6.42372 10.8576 6.34294 11.0668 6.28409 11.2197C6.25464 11.2963 6.23061 11.3589 6.21391 11.4025C6.20556 11.4243 6.19904 11.4414 6.19458 11.453C6.19235 11.4589 6.19064 11.4633 6.18947 11.4664C6.18888 11.4679 6.18843 11.4691 6.18813 11.4699C6.18797 11.4703 6.18785 11.4706 6.18777 11.4709C6.18773 11.471 6.18769 11.471 6.18767 11.4711C6.18766 11.4711 6.18765 11.4712 6.18764 11.4712C6.18763 11.4712 6.18762 11.4712 7.61368 12.0154ZM5.42192 10.7122C5.50141 10.8712 5.68378 11.3051 5.86999 11.7642C5.95745 11.9799 6.03826 12.1824 6.0973 12.3311C6.12678 12.4054 6.15073 12.4661 6.16724 12.508C6.1755 12.529 6.18189 12.5452 6.18618 12.5561C6.18832 12.5616 6.18994 12.5657 6.19101 12.5684C6.19154 12.5698 6.19193 12.5708 6.19218 12.5714C6.1923 12.5717 6.19239 12.572 6.19245 12.5721C6.19247 12.5722 6.19249 12.5722 6.1925 12.5722C6.1925 12.5722 6.1925 12.5722 6.1925 12.5723C6.1925 12.5722 6.1925 12.5722 7.61368 12.0154C9.03486 11.4586 9.03485 11.4586 9.03484 11.4586C9.03483 11.4586 9.03482 11.4585 9.0348 11.4585C9.03478 11.4584 9.03474 11.4583 9.03469 11.4582C9.0346 11.458 9.03447 11.4576 9.0343 11.4572C9.03397 11.4564 9.0335 11.4552 9.03288 11.4536C9.03165 11.4504 9.02986 11.4459 9.02754 11.44C9.0229 11.4282 9.01613 11.4109 9.00747 11.389C8.99017 11.3451 8.9653 11.2821 8.9348 11.2052C8.87389 11.0517 8.79009 10.8418 8.69893 10.617C8.5279 10.1952 8.297 9.63624 8.15235 9.34695L5.42192 10.7122ZM2.60467 7.65354C3.12626 7.92589 3.7155 8.41634 4.25601 9.0176C4.79518 9.61736 5.19961 10.2311 5.40059 10.6678L8.17368 9.39139C7.81491 8.61191 7.21721 7.74535 6.52626 6.97673C5.83665 6.20962 4.96778 5.44361 4.01763 4.94749L2.60467 7.65354ZM0.465285 6.15943C1.06433 6.72297 1.82016 7.25621 2.62133 7.66211L4.00097 4.93892C3.45344 4.66153 2.93862 4.29495 2.55697 3.93592L0.465285 6.15943ZM2.67773 7.17859C2.67773 6.60565 2.77478 6.05863 2.9521 5.55106L0.0701584 4.54429C-0.21866 5.37105 -0.374997 6.25819 -0.374997 7.17859H2.67773ZM7.61051 12.1114C4.88621 12.1114 2.67773 9.90289 2.67773 7.17859H-0.374997C-0.374997 11.5889 3.20023 15.1641 7.61051 15.1641V12.1114ZM3.3572 4.67823C4.21734 3.2192 5.80108 2.24582 7.61051 2.24582V-0.806912C4.67639 -0.806912 2.11372 0.77639 0.727439 3.12791L3.3572 4.67823ZM7.61051 2.24582C9.41922 2.24582 11.0024 3.21843 11.8628 4.6765L14.4919 3.12512C13.1053 0.775144 10.5435 -0.806912 7.61051 -0.806912V2.24582ZM12.7552 2.43399C12.2801 2.57074 11.6937 2.7112 10.8545 2.88548L11.4753 5.87442C12.3503 5.69269 13.0201 5.5344 13.5995 5.36764L12.7552 2.43399ZM10.8384 2.88893C9.84107 3.10734 8.46373 3.45451 7.85969 3.71373L9.06354 6.51906C9.35486 6.39405 10.4419 6.10084 11.4915 5.87098L10.8384 2.88893ZM7.89903 3.69749L7.05109 4.0337L8.17627 6.8715L9.0242 6.5353L7.89903 3.69749ZM8.18559 4.03743L7.35366 3.70122L6.20985 6.53157L7.04177 6.86777L8.18559 4.03743ZM7.36599 3.70627C6.75117 3.45154 5.23634 3.07407 4.06088 2.82365L3.42478 5.80937C4.64844 6.07006 5.88494 6.39702 6.19752 6.52652L7.36599 3.70627ZM4.06229 2.82395C3.48452 2.70029 2.90559 2.55693 2.44553 2.43092L1.63912 5.37521C2.15262 5.51586 2.78741 5.67295 3.42337 5.80907L4.06229 2.82395ZM11.4472 6.66222C11.5739 7.29104 11.5005 7.94032 11.2845 8.26069C11.2103 8.37072 11.1055 8.469 10.8793 8.53006C10.619 8.6003 10.1271 8.63651 9.29086 8.42432L8.54008 11.3833C9.70292 11.6783 10.7544 11.7257 11.6748 11.4773C12.6291 11.2197 13.3421 10.6695 13.8155 9.96742C14.6948 8.66353 14.6363 7.034 14.4398 6.05907L11.4472 6.66222ZM10.2518 10.6414C11.2831 8.77301 12.8895 7.96577 13.3692 7.82643L12.5177 4.89487C11.3521 5.23345 9.0439 6.51256 7.57916 9.1662L10.2518 10.6414ZM0.893049 6.05907C0.696553 7.034 0.638034 8.66353 1.51728 9.96742C1.99072 10.6695 2.70369 11.2197 3.65803 11.4773C4.57837 11.7257 5.62989 11.6783 6.79273 11.3833L6.04195 8.42432C5.2057 8.63651 4.71377 8.6003 4.45352 8.53006C4.22728 8.469 4.12252 8.37072 4.04832 8.26069C3.8323 7.94032 3.75886 7.29104 3.8856 6.66222L0.893049 6.05907ZM7.75364 9.1662C6.2889 6.51256 3.98071 5.23345 2.81509 4.89487L1.96355 7.82643C2.44326 7.96577 4.04972 8.77301 5.08103 10.6414L7.75364 9.1662Z" fill="white" mask="url(#path-9-inside-1_4_85)"/>
<path fill-rule="evenodd" clip-rule="evenodd" d="M1.2548 3.22455C1.36006 3.27196 1.68684 3.37729 2.16867 3.5089C2.64535 3.63909 3.23758 3.78547 3.82949 3.91217C5.02109 4.16604 6.43244 4.52453 6.93857 4.7337L7.61544 5.00724L8.30442 4.73406C8.79848 4.52368 10.0642 4.19781 11.0768 3.97607L11.0789 3.97559L11.0811 3.97513C12.7627 3.62588 13.5351 3.39204 14.3989 3.03705C14.4378 3.02104 14.4836 3.0033 14.5302 2.9899C14.5684 2.97891 14.65 2.9575 14.7452 2.96689C14.8654 2.97874 15.0317 3.0468 15.1132 3.22968C15.1731 3.36406 15.1506 3.48929 15.1409 3.53582C15.1185 3.64316 15.0633 3.76176 15.0116 3.86535C14.9537 3.98123 14.8739 4.12825 14.7739 4.30847L14.6558 4.5214H14.6498C14.0974 5.42614 13.3519 6.02954 11.9643 6.74699C11.3619 7.0668 10.6915 7.65472 10.0986 8.31689C9.50761 8.97697 9.02629 9.67423 8.78432 10.1863C8.68505 10.4086 8.49159 10.8957 8.31866 11.3388C8.23262 11.5593 8.15301 11.7654 8.09489 11.9164C8.06584 11.9919 8.04218 12.0536 8.02579 12.0964L8.00036 12.1629L7.61398 12.0155L7.22894 12.1664L7.22885 12.1661L7.20291 12.1002C7.1861 12.0575 7.16182 11.996 7.13197 11.9208C7.07225 11.7703 6.99035 11.5651 6.90154 11.3461C6.72086 10.9006 6.5208 10.4211 6.41756 10.2146L6.41457 10.2086L6.41178 10.2026C6.15328 9.64093 5.67839 8.93503 5.0839 8.27371C4.48967 7.61269 3.79932 7.02234 3.12221 6.6683C2.44203 6.32342 1.79987 5.87432 1.29042 5.40688C0.793674 4.9511 0.381305 4.43979 0.218205 3.95754C0.169496 3.8263 0.122314 3.69551 0.0990439 3.59032C0.0879599 3.54022 0.0718244 3.45314 0.0850435 3.35735C0.100853 3.24279 0.168164 3.07757 0.351643 2.99461C0.492833 2.93078 0.625683 2.95546 0.679053 2.96736C0.745748 2.98222 0.810068 3.00708 0.863354 3.02996C0.968829 3.07524 1.1029 3.14476 1.2548 3.22455ZM1.21327 4.089C1.36157 4.30353 1.57508 4.5456 1.84958 4.79746C2.30325 5.21372 2.88377 5.62034 3.49835 5.9317L3.50061 5.93285L3.50286 5.93402C4.29678 6.34856 5.06371 7.01412 5.69897 7.72078C6.33266 8.42569 6.85863 9.19754 7.16034 9.85078C7.26803 10.0674 7.44634 10.492 7.60746 10.8865C7.76436 10.4864 7.9346 10.0602 8.03105 9.8447L8.0327 9.84103L8.03441 9.83739C8.32075 9.22966 8.85667 8.46409 9.4824 7.7652C10.107 7.06753 10.8539 6.39951 11.5787 6.01527L11.5806 6.01427L11.5825 6.01328C12.8901 5.3374 13.4964 4.82252 13.9417 4.09407C13.2581 4.32868 12.4847 4.52831 11.2515 4.78447C10.2215 5.01012 9.03003 5.32268 8.62499 5.4965L8.61969 5.49877L7.61251 5.89811L6.62544 5.49921L6.62377 5.49852C6.20102 5.32337 4.86305 4.978 3.65696 4.72104L3.65658 4.72096C3.04899 4.59092 2.44174 4.44084 1.95076 4.30675C1.66933 4.22988 1.41234 4.15466 1.21327 4.089ZM0.905071 3.40351C0.905131 3.40356 0.90542 3.40503 0.905762 3.40774C0.905183 3.40482 0.905012 3.40346 0.905071 3.40351ZM7.61398 12.0155L7.22894 12.1664L7.61905 13.1621L8.00036 12.1629L7.61398 12.0155Z" fill="white"/>
<defs>
<clipPath id="clip0_4_85">
<rect width="44.662" height="13.2332" fill="white" transform="translate(18.3379 2.04736)"/>
</clipPath>
</defs>
</svg>
